<mxfile host="app.diagrams.net" modified="2024-06-06T08:18:58.497Z" agent="Mozilla/5.0 (Windows NT 10.0; Win64; x64) AppleWebKit/537.36 (KHTML, like Gecko) Chrome/125.0.0.0 Safari/537.36" etag="MaU7uj5aejtzA2G5yoM3" version="24.4.14" type="github">
  <diagram id="C5RBs43oDa-KdzZeNtuy" name="Page-1">
    <mxGraphModel dx="1114" dy="600" grid="1" gridSize="10" guides="1" tooltips="1" connect="1" arrows="1" fold="1" page="1" pageScale="1" pageWidth="827" pageHeight="1169" math="0" shadow="0">
      <root>
        <mxCell id="WIyWlLk6GJQsqaUBKTNV-0" />
        <mxCell id="WIyWlLk6GJQsqaUBKTNV-1" parent="WIyWlLk6GJQsqaUBKTNV-0" />
        <mxCell id="hv9edbM1mthbBYWGQ4fn-0" value="&lt;div&gt;&amp;lt;&amp;lt;interface&amp;gt;&amp;gt;&lt;/div&gt;ReprodutorMusical" style="swimlane;fontStyle=0;childLayout=stackLayout;horizontal=1;startSize=26;fillColor=none;horizontalStack=0;resizeParent=1;resizeParentMax=0;resizeLast=0;collapsible=1;marginBottom=0;whiteSpace=wrap;html=1;" vertex="1" parent="WIyWlLk6GJQsqaUBKTNV-1">
          <mxGeometry x="70" y="270" width="190" height="104" as="geometry" />
        </mxCell>
        <mxCell id="hv9edbM1mthbBYWGQ4fn-1" value="+ tocar:void" style="text;strokeColor=none;fillColor=none;align=left;verticalAlign=top;spacingLeft=4;spacingRight=4;overflow=hidden;rotatable=0;points=[[0,0.5],[1,0.5]];portConstraint=eastwest;whiteSpace=wrap;html=1;" vertex="1" parent="hv9edbM1mthbBYWGQ4fn-0">
          <mxGeometry y="26" width="190" height="26" as="geometry" />
        </mxCell>
        <mxCell id="hv9edbM1mthbBYWGQ4fn-2" value="+ pausar&lt;span style=&quot;white-space: pre;&quot;&gt;&#x9;&lt;/span&gt;: void" style="text;strokeColor=none;fillColor=none;align=left;verticalAlign=top;spacingLeft=4;spacingRight=4;overflow=hidden;rotatable=0;points=[[0,0.5],[1,0.5]];portConstraint=eastwest;whiteSpace=wrap;html=1;" vertex="1" parent="hv9edbM1mthbBYWGQ4fn-0">
          <mxGeometry y="52" width="190" height="26" as="geometry" />
        </mxCell>
        <mxCell id="hv9edbM1mthbBYWGQ4fn-3" value="+ fselecionarMusica: String" style="text;strokeColor=none;fillColor=none;align=left;verticalAlign=top;spacingLeft=4;spacingRight=4;overflow=hidden;rotatable=0;points=[[0,0.5],[1,0.5]];portConstraint=eastwest;whiteSpace=wrap;html=1;" vertex="1" parent="hv9edbM1mthbBYWGQ4fn-0">
          <mxGeometry y="78" width="190" height="26" as="geometry" />
        </mxCell>
        <mxCell id="hv9edbM1mthbBYWGQ4fn-4" value="&amp;lt;&amp;lt;interface&amp;gt;&amp;gt;&lt;div&gt;AparelhoTelefonico&lt;/div&gt;" style="swimlane;fontStyle=0;childLayout=stackLayout;horizontal=1;startSize=26;fillColor=none;horizontalStack=0;resizeParent=1;resizeParentMax=0;resizeLast=0;collapsible=1;marginBottom=0;whiteSpace=wrap;html=1;" vertex="1" parent="WIyWlLk6GJQsqaUBKTNV-1">
          <mxGeometry x="292.5" y="270" width="190" height="104" as="geometry" />
        </mxCell>
        <mxCell id="hv9edbM1mthbBYWGQ4fn-5" value="+ ligar: String" style="text;strokeColor=none;fillColor=none;align=left;verticalAlign=top;spacingLeft=4;spacingRight=4;overflow=hidden;rotatable=0;points=[[0,0.5],[1,0.5]];portConstraint=eastwest;whiteSpace=wrap;html=1;" vertex="1" parent="hv9edbM1mthbBYWGQ4fn-4">
          <mxGeometry y="26" width="190" height="26" as="geometry" />
        </mxCell>
        <mxCell id="hv9edbM1mthbBYWGQ4fn-6" value="+ atender: void" style="text;strokeColor=none;fillColor=none;align=left;verticalAlign=top;spacingLeft=4;spacingRight=4;overflow=hidden;rotatable=0;points=[[0,0.5],[1,0.5]];portConstraint=eastwest;whiteSpace=wrap;html=1;" vertex="1" parent="hv9edbM1mthbBYWGQ4fn-4">
          <mxGeometry y="52" width="190" height="26" as="geometry" />
        </mxCell>
        <mxCell id="hv9edbM1mthbBYWGQ4fn-7" value="+ iniciarCorreioVoz:void" style="text;strokeColor=none;fillColor=none;align=left;verticalAlign=top;spacingLeft=4;spacingRight=4;overflow=hidden;rotatable=0;points=[[0,0.5],[1,0.5]];portConstraint=eastwest;whiteSpace=wrap;html=1;" vertex="1" parent="hv9edbM1mthbBYWGQ4fn-4">
          <mxGeometry y="78" width="190" height="26" as="geometry" />
        </mxCell>
        <mxCell id="hv9edbM1mthbBYWGQ4fn-11" value="&amp;lt;&amp;lt;interface&amp;gt;&amp;gt;&lt;div&gt;NavegadorInternet&lt;/div&gt;" style="swimlane;fontStyle=0;childLayout=stackLayout;horizontal=1;startSize=26;fillColor=none;horizontalStack=0;resizeParent=1;resizeParentMax=0;resizeLast=0;collapsible=1;marginBottom=0;whiteSpace=wrap;html=1;" vertex="1" parent="WIyWlLk6GJQsqaUBKTNV-1">
          <mxGeometry x="522.5" y="270" width="200" height="104" as="geometry" />
        </mxCell>
        <mxCell id="hv9edbM1mthbBYWGQ4fn-12" value="+ exibirPagina: String" style="text;strokeColor=none;fillColor=none;align=left;verticalAlign=top;spacingLeft=4;spacingRight=4;overflow=hidden;rotatable=0;points=[[0,0.5],[1,0.5]];portConstraint=eastwest;whiteSpace=wrap;html=1;" vertex="1" parent="hv9edbM1mthbBYWGQ4fn-11">
          <mxGeometry y="26" width="200" height="26" as="geometry" />
        </mxCell>
        <mxCell id="hv9edbM1mthbBYWGQ4fn-13" value="+ adicionarNovaAba:void&amp;nbsp;" style="text;strokeColor=none;fillColor=none;align=left;verticalAlign=top;spacingLeft=4;spacingRight=4;overflow=hidden;rotatable=0;points=[[0,0.5],[1,0.5]];portConstraint=eastwest;whiteSpace=wrap;html=1;" vertex="1" parent="hv9edbM1mthbBYWGQ4fn-11">
          <mxGeometry y="52" width="200" height="26" as="geometry" />
        </mxCell>
        <mxCell id="hv9edbM1mthbBYWGQ4fn-14" value="+ atualizarPagina: void" style="text;strokeColor=none;fillColor=none;align=left;verticalAlign=top;spacingLeft=4;spacingRight=4;overflow=hidden;rotatable=0;points=[[0,0.5],[1,0.5]];portConstraint=eastwest;whiteSpace=wrap;html=1;" vertex="1" parent="hv9edbM1mthbBYWGQ4fn-11">
          <mxGeometry y="78" width="200" height="26" as="geometry" />
        </mxCell>
        <mxCell id="hv9edbM1mthbBYWGQ4fn-23" style="edgeStyle=orthogonalEdgeStyle;rounded=0;orthogonalLoop=1;jettySize=auto;html=1;" edge="1" parent="WIyWlLk6GJQsqaUBKTNV-1" source="hv9edbM1mthbBYWGQ4fn-15">
          <mxGeometry relative="1" as="geometry">
            <mxPoint x="152.5" y="380" as="targetPoint" />
          </mxGeometry>
        </mxCell>
        <mxCell id="hv9edbM1mthbBYWGQ4fn-15" value="ITunes" style="swimlane;fontStyle=1;align=center;verticalAlign=top;childLayout=stackLayout;horizontal=1;startSize=26;horizontalStack=0;resizeParent=1;resizeParentMax=0;resizeLast=0;collapsible=1;marginBottom=0;whiteSpace=wrap;html=1;" vertex="1" parent="WIyWlLk6GJQsqaUBKTNV-1">
          <mxGeometry x="97.5" y="430" width="135" height="34" as="geometry" />
        </mxCell>
        <mxCell id="hv9edbM1mthbBYWGQ4fn-17" value="" style="line;strokeWidth=1;fillColor=none;align=left;verticalAlign=middle;spacingTop=-1;spacingLeft=3;spacingRight=3;rotatable=0;labelPosition=right;points=[];portConstraint=eastwest;strokeColor=inherit;" vertex="1" parent="hv9edbM1mthbBYWGQ4fn-15">
          <mxGeometry y="26" width="135" height="8" as="geometry" />
        </mxCell>
        <mxCell id="hv9edbM1mthbBYWGQ4fn-24" style="edgeStyle=orthogonalEdgeStyle;rounded=0;orthogonalLoop=1;jettySize=auto;html=1;" edge="1" parent="WIyWlLk6GJQsqaUBKTNV-1" source="hv9edbM1mthbBYWGQ4fn-19">
          <mxGeometry relative="1" as="geometry">
            <mxPoint x="382.5" y="380" as="targetPoint" />
          </mxGeometry>
        </mxCell>
        <mxCell id="hv9edbM1mthbBYWGQ4fn-19" value="Telefone" style="swimlane;fontStyle=1;align=center;verticalAlign=top;childLayout=stackLayout;horizontal=1;startSize=26;horizontalStack=0;resizeParent=1;resizeParentMax=0;resizeLast=0;collapsible=1;marginBottom=0;whiteSpace=wrap;html=1;" vertex="1" parent="WIyWlLk6GJQsqaUBKTNV-1">
          <mxGeometry x="322.5" y="430" width="135" height="34" as="geometry" />
        </mxCell>
        <mxCell id="hv9edbM1mthbBYWGQ4fn-20" value="" style="line;strokeWidth=1;fillColor=none;align=left;verticalAlign=middle;spacingTop=-1;spacingLeft=3;spacingRight=3;rotatable=0;labelPosition=right;points=[];portConstraint=eastwest;strokeColor=inherit;" vertex="1" parent="hv9edbM1mthbBYWGQ4fn-19">
          <mxGeometry y="26" width="135" height="8" as="geometry" />
        </mxCell>
        <mxCell id="hv9edbM1mthbBYWGQ4fn-25" style="edgeStyle=orthogonalEdgeStyle;rounded=0;orthogonalLoop=1;jettySize=auto;html=1;" edge="1" parent="WIyWlLk6GJQsqaUBKTNV-1" source="hv9edbM1mthbBYWGQ4fn-21">
          <mxGeometry relative="1" as="geometry">
            <mxPoint x="602.5" y="390" as="targetPoint" />
          </mxGeometry>
        </mxCell>
        <mxCell id="hv9edbM1mthbBYWGQ4fn-21" value="SafariWeb" style="swimlane;fontStyle=1;align=center;verticalAlign=top;childLayout=stackLayout;horizontal=1;startSize=26;horizontalStack=0;resizeParent=1;resizeParentMax=0;resizeLast=0;collapsible=1;marginBottom=0;whiteSpace=wrap;html=1;" vertex="1" parent="WIyWlLk6GJQsqaUBKTNV-1">
          <mxGeometry x="552.5" y="430" width="135" height="34" as="geometry" />
        </mxCell>
        <mxCell id="hv9edbM1mthbBYWGQ4fn-22" value="" style="line;strokeWidth=1;fillColor=none;align=left;verticalAlign=middle;spacingTop=-1;spacingLeft=3;spacingRight=3;rotatable=0;labelPosition=right;points=[];portConstraint=eastwest;strokeColor=inherit;" vertex="1" parent="hv9edbM1mthbBYWGQ4fn-21">
          <mxGeometry y="26" width="135" height="8" as="geometry" />
        </mxCell>
        <mxCell id="hv9edbM1mthbBYWGQ4fn-28" style="edgeStyle=orthogonalEdgeStyle;rounded=0;orthogonalLoop=1;jettySize=auto;html=1;" edge="1" parent="WIyWlLk6GJQsqaUBKTNV-1" source="hv9edbM1mthbBYWGQ4fn-26">
          <mxGeometry relative="1" as="geometry">
            <mxPoint x="242.5" y="380" as="targetPoint" />
          </mxGeometry>
        </mxCell>
        <mxCell id="hv9edbM1mthbBYWGQ4fn-30" style="edgeStyle=orthogonalEdgeStyle;rounded=0;orthogonalLoop=1;jettySize=auto;html=1;" edge="1" parent="WIyWlLk6GJQsqaUBKTNV-1" source="hv9edbM1mthbBYWGQ4fn-26">
          <mxGeometry relative="1" as="geometry">
            <mxPoint x="462.5" y="380" as="targetPoint" />
          </mxGeometry>
        </mxCell>
        <mxCell id="hv9edbM1mthbBYWGQ4fn-31" style="edgeStyle=orthogonalEdgeStyle;rounded=0;orthogonalLoop=1;jettySize=auto;html=1;" edge="1" parent="WIyWlLk6GJQsqaUBKTNV-1" source="hv9edbM1mthbBYWGQ4fn-26">
          <mxGeometry relative="1" as="geometry">
            <mxPoint x="702.5" y="380" as="targetPoint" />
          </mxGeometry>
        </mxCell>
        <mxCell id="hv9edbM1mthbBYWGQ4fn-26" value="Iphone" style="swimlane;fontStyle=1;align=center;verticalAlign=top;childLayout=stackLayout;horizontal=1;startSize=26;horizontalStack=0;resizeParent=1;resizeParentMax=0;resizeLast=0;collapsible=1;marginBottom=0;whiteSpace=wrap;html=1;" vertex="1" parent="WIyWlLk6GJQsqaUBKTNV-1">
          <mxGeometry x="302.5" y="560" width="135" height="34" as="geometry" />
        </mxCell>
        <mxCell id="hv9edbM1mthbBYWGQ4fn-27" value="" style="line;strokeWidth=1;fillColor=none;align=left;verticalAlign=middle;spacingTop=-1;spacingLeft=3;spacingRight=3;rotatable=0;labelPosition=right;points=[];portConstraint=eastwest;strokeColor=inherit;" vertex="1" parent="hv9edbM1mthbBYWGQ4fn-26">
          <mxGeometry y="26" width="135" height="8" as="geometry" />
        </mxCell>
        <mxCell id="hv9edbM1mthbBYWGQ4fn-36" style="edgeStyle=orthogonalEdgeStyle;rounded=0;orthogonalLoop=1;jettySize=auto;html=1;" edge="1" parent="WIyWlLk6GJQsqaUBKTNV-1" source="hv9edbM1mthbBYWGQ4fn-32">
          <mxGeometry relative="1" as="geometry">
            <mxPoint x="160" y="260" as="targetPoint" />
          </mxGeometry>
        </mxCell>
        <mxCell id="hv9edbM1mthbBYWGQ4fn-32" value="reprodutorMusical" style="shape=folder;fontStyle=1;spacingTop=10;tabWidth=40;tabHeight=14;tabPosition=left;html=1;whiteSpace=wrap;" vertex="1" parent="WIyWlLk6GJQsqaUBKTNV-1">
          <mxGeometry x="120" y="70" width="120" height="50" as="geometry" />
        </mxCell>
        <mxCell id="hv9edbM1mthbBYWGQ4fn-39" style="edgeStyle=orthogonalEdgeStyle;rounded=0;orthogonalLoop=1;jettySize=auto;html=1;" edge="1" parent="WIyWlLk6GJQsqaUBKTNV-1" source="hv9edbM1mthbBYWGQ4fn-33">
          <mxGeometry relative="1" as="geometry">
            <mxPoint x="620" y="260" as="targetPoint" />
          </mxGeometry>
        </mxCell>
        <mxCell id="hv9edbM1mthbBYWGQ4fn-33" value="NavegadorInternet" style="shape=folder;fontStyle=1;spacingTop=10;tabWidth=40;tabHeight=14;tabPosition=left;html=1;whiteSpace=wrap;" vertex="1" parent="WIyWlLk6GJQsqaUBKTNV-1">
          <mxGeometry x="600" y="70" width="120" height="50" as="geometry" />
        </mxCell>
        <mxCell id="hv9edbM1mthbBYWGQ4fn-38" style="edgeStyle=orthogonalEdgeStyle;rounded=0;orthogonalLoop=1;jettySize=auto;html=1;" edge="1" parent="WIyWlLk6GJQsqaUBKTNV-1" source="hv9edbM1mthbBYWGQ4fn-34">
          <mxGeometry relative="1" as="geometry">
            <mxPoint x="400" y="260" as="targetPoint" />
          </mxGeometry>
        </mxCell>
        <mxCell id="hv9edbM1mthbBYWGQ4fn-34" value="AparelhoTelefonicop" style="shape=folder;fontStyle=1;spacingTop=10;tabWidth=40;tabHeight=14;tabPosition=left;html=1;whiteSpace=wrap;" vertex="1" parent="WIyWlLk6GJQsqaUBKTNV-1">
          <mxGeometry x="352.5" y="70" width="127.5" height="50" as="geometry" />
        </mxCell>
        <mxCell id="hv9edbM1mthbBYWGQ4fn-41" style="edgeStyle=orthogonalEdgeStyle;rounded=0;orthogonalLoop=1;jettySize=auto;html=1;" edge="1" parent="WIyWlLk6GJQsqaUBKTNV-1" source="hv9edbM1mthbBYWGQ4fn-40">
          <mxGeometry relative="1" as="geometry">
            <mxPoint x="380" y="600" as="targetPoint" />
          </mxGeometry>
        </mxCell>
        <mxCell id="hv9edbM1mthbBYWGQ4fn-40" value="iphone" style="shape=folder;fontStyle=1;spacingTop=10;tabWidth=40;tabHeight=14;tabPosition=left;html=1;whiteSpace=wrap;" vertex="1" parent="WIyWlLk6GJQsqaUBKTNV-1">
          <mxGeometry x="310" y="650" width="120" height="60" as="geometry" />
        </mxCell>
      </root>
    </mxGraphModel>
  </diagram>
</mxfile>
